<?xml version="1.0" standalone="no"?>
<!DOCTYPE svg PUBLIC "-//W3C//DTD SVG 20010904//EN"
 "http://www.w3.org/TR/2001/REC-SVG-20010904/DTD/svg10.dtd">
<svg version="1.0" xmlns="http://www.w3.org/2000/svg"
 width="425.000000pt" height="132.000000pt" viewBox="0 0 425.000000 132.000000"
 preserveAspectRatio="xMidYMid meet">

<g transform="translate(0.000000,132.000000) scale(0.100000,-0.100000)"
fill="#000000" stroke="none">
<path d="M484 1305 c-114 -36 -207 -107 -340 -258 -103 -119 -113 -134 -128
-194 -9 -36 -15 -67 -13 -69 2 -3 94 20 203 50 272 73 278 74 300 41 13 -20
94 -299 94 -325 0 -3 -110 -37 -245 -75 -135 -38 -245 -73 -245 -78 0 -19 79
-83 154 -126 93 -53 179 -83 321 -112 61 -12 115 -28 121 -35 6 -7 16 -38 23
-69 10 -44 16 -55 29 -51 9 3 36 10 59 16 33 8 52 23 89 68 76 94 296 232 474
297 101 37 175 40 700 26 239 -6 626 -16 860 -21 234 -6 579 -15 768 -20 l343
-11 51 28 c64 35 122 101 138 158 26 91 -23 228 -102 288 -73 56 -92 58 -453
52 -181 -4 -730 -10 -1219 -15 l-889 -8 -111 29 c-61 15 -140 38 -176 49 -36
11 -72 20 -80 20 -26 0 -148 63 -305 157 -218 131 -349 203 -366 202 -8 -1
-32 -7 -55 -14z m3556 -540 c55 -16 110 -91 110 -152 0 -43 -38 -110 -76 -134
-46 -28 -119 -30 -164 -3 -50 29 -73 66 -77 126 -7 84 40 150 118 168 34 8 43
7 89 -5z"/>
</g>
</svg>
