<?xml version="1.0" ?><svg enable-background="new 0 0 32 32" version="1.1" viewBox="0 0 32 32" xml:space="preserve" xmlns="http://www.w3.org/2000/svg" xmlns:xlink="http://www.w3.org/1999/xlink"><g id="Style_2_copy_3"><g><path d="M16,0C7.163,0,0,7.163,0,16c0,8.836,7.163,16,16,16s16-7.164,16-16C32,7.163,24.837,0,16,0z" fill="#333333"/></g><g id="Layer_x0020_1"><path d="M6.532,21.561c2.452,2.129,5.138,4.108,8.75,4.109c0.07,0,0.141-0.001,0.214-0.003    c2.298-0.053,4.897-0.829,6.915-2.096l0.012-0.008c0.264-0.159,0.529-0.338,0.777-0.538c0.156-0.115,0.262-0.293,0.262-0.48    c-0.006-0.333-0.288-0.557-0.592-0.557c-0.095-0.001-0.194,0.021-0.287,0.066c-0.103,0.041-0.21,0.088-0.309,0.131l-0.148,0.062    l-0.19,0.077v0.001c-2.075,0.841-4.255,1.335-6.272,1.38c-0.074,0.002-0.148,0.002-0.222,0.002    c-3.172,0.001-5.761-1.471-8.371-2.921c-0.092-0.048-0.185-0.073-0.276-0.073c-0.119,0-0.238,0.044-0.326,0.126    c-0.088,0.082-0.14,0.202-0.139,0.324C6.33,21.323,6.414,21.468,6.532,21.561z" fill="#FEFEFE"/><path d="M25.667,20.813c-0.008-0.202-0.05-0.355-0.135-0.482l-0.008-0.013l-0.01-0.013    c-0.086-0.094-0.168-0.128-0.257-0.168c-0.264-0.102-0.65-0.156-1.113-0.157c-0.334,0-0.703,0.032-1.072,0.112l-0.001-0.024    l-0.371,0.123l-0.006,0.004l-0.21,0.068v0.009c-0.247,0.102-0.471,0.231-0.679,0.38c-0.13,0.098-0.238,0.226-0.244,0.422    c-0.003,0.107,0.052,0.231,0.142,0.304c0.09,0.073,0.194,0.097,0.286,0.097c0.023,0,0.043-0.001,0.062-0.004l0.016-0.001    l0.015-0.003c0.181-0.039,0.447-0.064,0.757-0.108c0.266-0.029,0.548-0.052,0.792-0.052c0.173,0,0.329,0.012,0.436,0.035    c0.054,0.012,0.093,0.025,0.116,0.037c0.008,0.003,0.014,0.005,0.016,0.008c0.005,0.015,0.011,0.053,0.01,0.107    c0.004,0.204-0.084,0.585-0.202,0.955c-0.116,0.371-0.258,0.743-0.351,0.99c-0.023,0.057-0.035,0.12-0.035,0.188    c-0.003,0.099,0.038,0.219,0.124,0.3c0.083,0.079,0.192,0.112,0.283,0.112h0.004c0.137-0.002,0.253-0.057,0.354-0.135    c0.944-0.85,1.272-2.206,1.286-2.968l-0.004-0.123L25.667,20.813L25.667,20.813z" fill="#FEFEFE"/><path d="M17.035,11.71c-0.555,0.042-1.196,0.084-1.836,0.169c-0.982,0.13-1.963,0.3-2.774,0.685    c-1.579,0.64-2.647,2.006-2.647,4.013c0,2.52,1.622,3.801,3.672,3.801c0.683,0,1.238-0.087,1.749-0.213    c0.812-0.257,1.493-0.726,2.306-1.581c0.469,0.64,0.597,0.94,1.408,1.623c0.213,0.084,0.427,0.084,0.597-0.041    c0.514-0.428,1.409-1.197,1.877-1.624c0.215-0.17,0.171-0.427,0.042-0.639c-0.468-0.598-0.938-1.111-0.938-2.265v-3.843    c0-1.623,0.128-3.118-1.066-4.227c-0.981-0.896-2.518-1.239-3.713-1.239H15.2c-2.176,0.127-4.481,1.067-4.994,3.758    c-0.086,0.342,0.172,0.469,0.342,0.511l2.389,0.299c0.257-0.043,0.386-0.257,0.427-0.469c0.214-0.94,0.982-1.41,1.836-1.495h0.172    c0.512,0,1.066,0.214,1.365,0.641c0.341,0.513,0.3,1.195,0.3,1.794L17.035,11.71L17.035,11.71z M16.566,16.79L16.566,16.79    c-0.299,0.596-0.811,0.98-1.366,1.111c-0.086,0-0.213,0.041-0.342,0.041c-0.938,0-1.493-0.727-1.493-1.793    c0-1.368,0.812-2.008,1.836-2.307c0.555-0.127,1.195-0.172,1.836-0.172v0.513C17.035,15.168,17.077,15.936,16.566,16.79z" fill="#FEFEFE"/></g></g></svg>